<?xml version="1.0" encoding="UTF-8"?>
<svg version="1.1" xmlns="http://www.w3.org/2000/svg" width="512" height="512">
<path d="M0 0 C0.82703104 -0.00297112 1.65406207 -0.00594224 2.50615466 -0.0090034 C5.26393 -0.01764092 8.02166169 -0.01919447 10.77944946 -0.02069092 C12.76272676 -0.02532277 14.74600318 -0.03034792 16.72927856 -0.03573608 C22.10999886 -0.04883076 27.49070668 -0.05529986 32.87144041 -0.05974674 C36.23939524 -0.06268352 39.60734671 -0.06678956 42.97529984 -0.07125092 C53.5306911 -0.08492102 64.08607463 -0.09458884 74.64147413 -0.09845281 C86.79187187 -0.10292595 98.94215669 -0.12044138 111.09252012 -0.1494534 C120.50516561 -0.17114131 129.91777951 -0.18116095 139.3304497 -0.18249393 C144.94186478 -0.1835373 150.55317364 -0.18934438 156.16456223 -0.20731354 C161.45220179 -0.22391647 166.73965672 -0.22589101 172.02731323 -0.21717453 C173.95525231 -0.21641053 175.88320182 -0.22066151 177.81111526 -0.23063278 C214.71704391 -0.41013056 249.32103216 11.88090029 276.52798462 37.14044189 C277.10822388 37.67685303 277.68846313 38.21326416 278.2862854 38.76593018 C305.32526836 64.05245407 321.90484845 99.30058555 323.63467407 136.43048096 C324.71917569 176.16385515 312.10561995 213.93117507 284.79751587 243.18341064 C261.21657489 267.80891158 228.33254255 286.56063558 193.57092595 288.23469019 C191.39872875 288.27422601 189.22852607 288.28335499 187.05596924 288.28088379 C185.81542268 288.28534047 185.81542268 288.28534047 184.54981458 288.28988719 C181.79203923 288.29852471 179.03430755 288.30007826 176.27651978 288.30157471 C174.29324248 288.30620656 172.30996606 288.31123171 170.32669067 288.31661987 C164.94597038 288.32971455 159.56526256 288.33618365 154.18452883 288.34063053 C150.816574 288.34356731 147.44862253 288.34767335 144.0806694 288.3521347 C133.52527814 288.36580481 122.96989461 288.37547263 112.41449511 288.3793366 C100.26409737 288.38380974 88.11381255 288.40132516 75.96344912 288.43033719 C66.55080363 288.4520251 57.13818973 288.46204473 47.72551954 288.46337771 C42.11410446 288.46442109 36.50279559 288.47022817 30.89140701 288.48819733 C25.60376745 288.50480026 20.31631252 288.5067748 15.02865601 288.49805832 C13.10071693 288.49729431 11.17276742 288.5015453 9.24485397 288.51151657 C-27.66107467 288.69101435 -62.26506292 276.3999835 -89.47201538 251.14044189 C-90.34237427 250.3358252 -90.34237427 250.3358252 -91.23031616 249.51495361 C-118.93066139 223.60993186 -135.3444743 187.53001321 -136.67514038 149.52716064 C-137.33959241 109.49921617 -123.64294635 72.11933509 -95.82772827 43.09356689 C-70.88925673 17.72897497 -36.13838576 -0.04110607 0 0 Z M-75.55014038 69.84356689 C-94.71383341 90.77933194 -104.40489472 119.90907429 -103.75717163 148.04278564 C-101.91991367 179.52216364 -88.4625115 207.35450245 -65.26449585 228.55792236 C-39.67511494 251.14990916 -8.48114299 256.29776988 24.58901978 256.28570557 C26.25319493 256.28870582 27.91736939 256.29211031 29.58154297 256.29588318 C34.06125656 256.30463997 38.540951 256.30705777 43.02067232 256.30769897 C45.83138377 256.30841429 48.64209049 256.31055768 51.45280075 256.31319618 C61.29248102 256.32242256 71.13214783 256.32653453 80.97183228 256.32574463 C90.0887488 256.32514479 99.20560598 256.33568521 108.3225075 256.35148829 C116.19565149 256.36464051 124.06877626 256.36992532 131.94193113 256.36928922 C136.62384154 256.36903645 141.30569913 256.37176349 145.98759842 256.38246727 C188.93428476 256.47363028 224.75420723 253.99299785 257.52798462 223.14044189 C258.13126587 222.60161377 258.73454712 222.06278564 259.35610962 221.50762939 C279.28487738 202.97573788 289.26060051 174.64384329 290.81314087 148.04278564 C291.5092072 117.80929567 280.34283758 88.62352128 259.54727173 66.69049072 C236.24985714 42.98801553 206.51030004 32.41956186 173.5331409 32.02108061 C169.84437328 31.99567693 166.1557894 31.9938325 162.46694946 31.99517822 C160.80277431 31.99217797 159.13859985 31.98877348 157.47442627 31.98500061 C152.99471268 31.97624382 148.51501824 31.97382602 144.03529692 31.97318482 C141.22458547 31.9724695 138.41387875 31.97032611 135.60316849 31.96768761 C125.76348822 31.95846123 115.92382141 31.95434925 106.08413696 31.95513916 C96.96722044 31.955739 87.85036326 31.94519858 78.73346174 31.9293955 C70.86031775 31.91624328 62.98719297 31.91095847 55.11403811 31.91159457 C50.4321277 31.91184734 45.75027011 31.9091203 41.06837082 31.89841652 C-4.06941039 31.80250694 -42.56678514 35.45300776 -75.55014038 69.84356689 Z " fill="#000000" transform="translate(162.47201538085938,111.85955810546875)"/>
</svg>
